<mxfile host="app.diagrams.net" agent="Mozilla/5.0 (Macintosh; Intel Mac OS X 10_15_7) AppleWebKit/537.36 (KHTML, like Gecko) Chrome/131.0.0.0 Safari/537.36 Edg/131.0.0.0" version="26.0.6">
  <diagram name="Page-1" id="I2RzQkV2m2pnWG8UewLT">
    <mxGraphModel dx="930" dy="965" grid="1" gridSize="10" guides="1" tooltips="1" connect="1" arrows="1" fold="1" page="1" pageScale="1" pageWidth="709" pageHeight="472" math="0" shadow="0">
      <root>
        <mxCell id="0" />
        <mxCell id="1" parent="0" />
        <mxCell id="CC86WL3dVChZbo9_PTtD-1" value="" style="endArrow=block;html=1;rounded=0;endFill=1;strokeWidth=2;" edge="1" parent="1">
          <mxGeometry relative="1" as="geometry">
            <mxPoint x="40" y="300" as="sourcePoint" />
            <mxPoint x="680" y="300" as="targetPoint" />
          </mxGeometry>
        </mxCell>
        <mxCell id="CC86WL3dVChZbo9_PTtD-9" value="Group Operation" style="swimlane;horizontal=0;whiteSpace=wrap;html=1;" vertex="1" parent="1">
          <mxGeometry x="40" y="160" width="190" height="130" as="geometry" />
        </mxCell>
        <mxCell id="CC86WL3dVChZbo9_PTtD-13" value="" style="rounded=1;whiteSpace=wrap;html=1;fillColor=#fff2cc;strokeColor=#d6b656;" vertex="1" parent="CC86WL3dVChZbo9_PTtD-9">
          <mxGeometry x="30" y="97.5" width="150" height="25" as="geometry" />
        </mxCell>
        <mxCell id="CC86WL3dVChZbo9_PTtD-14" value="" style="rounded=1;whiteSpace=wrap;html=1;fillColor=#d5e8d4;strokeColor=#82b366;" vertex="1" parent="CC86WL3dVChZbo9_PTtD-9">
          <mxGeometry x="30" y="7.5" width="150" height="25" as="geometry" />
        </mxCell>
        <mxCell id="CC86WL3dVChZbo9_PTtD-15" value="" style="rounded=1;whiteSpace=wrap;html=1;fillColor=#d5e8d4;strokeColor=#82b366;" vertex="1" parent="CC86WL3dVChZbo9_PTtD-9">
          <mxGeometry x="30" y="37.5" width="90" height="25" as="geometry" />
        </mxCell>
        <mxCell id="CC86WL3dVChZbo9_PTtD-16" value="" style="rounded=1;whiteSpace=wrap;html=1;fillColor=#fff2cc;strokeColor=#d6b656;" vertex="1" parent="CC86WL3dVChZbo9_PTtD-9">
          <mxGeometry x="120" y="37.5" width="60" height="25" as="geometry" />
        </mxCell>
        <mxCell id="CC86WL3dVChZbo9_PTtD-17" value="" style="rounded=1;whiteSpace=wrap;html=1;fillColor=#d5e8d4;strokeColor=#82b366;" vertex="1" parent="CC86WL3dVChZbo9_PTtD-9">
          <mxGeometry x="30" y="67.5" width="60" height="25" as="geometry" />
        </mxCell>
        <mxCell id="CC86WL3dVChZbo9_PTtD-18" value="" style="rounded=1;whiteSpace=wrap;html=1;fillColor=#fff2cc;strokeColor=#d6b656;" vertex="1" parent="CC86WL3dVChZbo9_PTtD-9">
          <mxGeometry x="90" y="67.5" width="90" height="25" as="geometry" />
        </mxCell>
        <mxCell id="CC86WL3dVChZbo9_PTtD-10" value="21" style="ellipse;whiteSpace=wrap;html=1;aspect=fixed;strokeWidth=2;" vertex="1" parent="1">
          <mxGeometry x="40" y="310" width="20" height="20" as="geometry" />
        </mxCell>
        <mxCell id="CC86WL3dVChZbo9_PTtD-11" value="57" style="ellipse;whiteSpace=wrap;html=1;aspect=fixed;strokeWidth=2;" vertex="1" parent="1">
          <mxGeometry x="250" y="310" width="20" height="20" as="geometry" />
        </mxCell>
        <mxCell id="CC86WL3dVChZbo9_PTtD-12" value="57" style="ellipse;whiteSpace=wrap;html=1;aspect=fixed;strokeWidth=2;" vertex="1" parent="1">
          <mxGeometry x="300" y="310" width="20" height="20" as="geometry" />
        </mxCell>
      </root>
    </mxGraphModel>
  </diagram>
</mxfile>
